<svg xmlns="http://www.w3.org/2000/svg" height="40.277" width="44.41400000000001">

 <g>
  <title>Layer 1</title>
  <g id="Groupe_9710" stroke="null">
   <g id="Groupe_9708" stroke="null">
    <path id="Tracé_2243" d="m39.06912,14.8653a8.55251,8.55251 0 0 0 -16.94152,-2.19196a8.95262,8.95262 0 0 0 -8.45281,-7.07037a8.8609,8.8609 0 0 0 -8.50067,9.17195a9.77809,9.77809 0 0 0 1.10196,4.55806c3.7379,7.94237 15.7917,15.51787 15.7917,15.51787s12.09634,-7.5077 15.87677,-15.4328a9.79537,9.79537 0 0 0 1.12456,-4.55274z" fill="#00ccad" stroke="null"></path>
   </g>
   <g id="Groupe_9709" stroke="null">
    <path id="Tracé_2244" d="m22.06649,35.60719l-0.34029,-0.21534c-0.4998,-0.31238 -12.25718,-7.76691 -16.0323,-15.78638a10.42412,10.42412 0 0 1 -1.16311,-4.83322a9.51623,9.51623 0 0 1 9.12409,-9.81398l0.0226,0a9.47768,9.47768 0 0 1 8.45414,5.71585a9.47768,9.47768 0 0 1 8.46212,-5.66933l0.02924,0a9.51091,9.51091 0 0 1 9.09086,9.86051l0,0a10.49058,10.49058 0 0 1 -1.19634,4.84784c-3.80835,7.97561 -15.60826,15.36899 -16.10939,15.67871l-0.34162,0.21534zm-8.41161,-29.35953a8.22817,8.22817 0 0 0 -7.83337,8.52725a9.15201,9.15201 0 0 0 1.02885,4.25366c3.2793,6.96536 13.24482,13.7526 15.22144,15.04864c1.98061,-1.2854 11.98866,-8.01947 15.28658,-14.94363a9.22113,9.22113 0 0 0 1.06341,-4.2736a8.22418,8.22418 0 0 0 -7.80413,-8.5658l-0.02659,0a8.29995,8.29995 0 0 0 -7.84268,6.52537l-0.63539,2.68512l-0.6221,-2.68911a8.30261,8.30261 0 0 0 -7.82407,-6.57057l-0.01196,0.00266z" fill="#00ccad" stroke="null"></path>
   </g>
  </g>
 </g>
</svg>