<svg viewBox="0 0 66 66" height="66" width="66" xmlns:xlink="http://www.w3.org/1999/xlink" xmlns="http://www.w3.org/2000/svg">
  <defs>
    <clipPath id="clip-Icon-Piggybank">
      <rect height="66" width="66"></rect>
    </clipPath>
  </defs>
  <g clip-path="url(#clip-Icon-Piggybank)" id="Icon-Piggybank">
    <rect fill="rgba(255,255,255,0)" height="66" width="66"></rect>
    <g transform="translate(2428 -2288)" id="Groupe_9860">
      <g transform="translate(-2430 2289)" id="Groupe_9859">
        <path fill="#20315c" d="M34.759,2a8.391,8.391,0,0,1,4,15.77,8.153,8.153,0,0,1-4,1.015A8.392,8.392,0,0,1,34.759,2Zm0,1.291a7.1,7.1,0,1,0,7.1,7.1A7.091,7.091,0,0,0,34.759,3.291ZM19.306,18.765a.589.589,0,0,1,.081.02.633.633,0,0,1,.161.061l8.17,4.075a27.684,27.684,0,0,1,7.041-.908c10.759,0,19.851,6.03,22.07,14.2a4.381,4.381,0,0,0,4.4-4.519.645.645,0,0,1,.62-.67.589.589,0,0,1,.107,0,.645.645,0,0,1,.565.666,5.727,5.727,0,0,1-5.407,5.79,14.647,14.647,0,0,1,.242,2.6c0,5.448-3.045,10.285-7.747,13.577v9.664a.646.646,0,0,1-.646.646H40.57a.645.645,0,0,1-.626-.484L38.33,57.882a27.989,27.989,0,0,1-3.571.282,27.99,27.99,0,0,1-3.571-.282L29.574,63.49a.645.645,0,0,1-.625.484H20.557a.645.645,0,0,1-.646-.646V53.666A18.8,18.8,0,0,1,13.8,46.827L7.484,45.233A.645.645,0,0,1,7,44.608V36.215a.645.645,0,0,1,.484-.626L13.435,34.1a18.436,18.436,0,0,1,6.274-7.485l-1.089-7.1a.645.645,0,0,1,.535-.74.623.623,0,0,1,.151-.006Zm.787,1.8.968,6.234a.646.646,0,0,1-.283.626A17.155,17.155,0,0,0,14.5,34.884a.646.646,0,0,1-.444.383L8.291,36.719V44.1l6.092,1.533a.643.643,0,0,1,.423.343,17.514,17.514,0,0,0,6.113,6.859.647.647,0,0,1,.283.545v9.3h7.263l1.614-5.649a.646.646,0,0,1,.726-.464,25.971,25.971,0,0,0,7.908,0,.646.646,0,0,1,.726.464l1.614,5.649h7.263v-9.3a.645.645,0,0,1,.282-.545c4.6-3.1,7.465-7.668,7.465-12.75,0-9.187-9.459-16.785-21.3-16.785a26.539,26.539,0,0,0-6.981.908.645.645,0,0,1-.444-.04Zm14.667,5.972a21.528,21.528,0,0,1,7.989,1.493.646.646,0,0,1-.367,1.238.6.6,0,0,1-.117-.048,20.224,20.224,0,0,0-7.5-1.392,20.688,20.688,0,0,0-5,.6.646.646,0,1,1-.332-1.248l.01,0A22.047,22.047,0,0,1,34.759,26.532ZM21.848,34.278a1.937,1.937,0,1,1-1.937,1.937A1.937,1.937,0,0,1,21.848,34.278Z" id="Tracé_2322"></path>
      </g>
      <circle fill="#00ccad" transform="translate(-2404 2290)" r="9" cy="9" cx="9" id="Ellipse_759"></circle>
    </g>
  </g>
</svg>
