<svg viewBox="0 0 42.42 37.554" height="37.554" width="42.42" xmlns="http://www.w3.org/2000/svg">
  <g transform="translate(-798.422 -411.563)" id="Groupe_9773">
    <g transform="translate(798.422 411.563)" id="Groupe_9770">
      <g transform="translate(24.733 18.575)" id="Groupe_9755">
        <path fill="#fff" transform="translate(-825.924 -432.218)" d="M826.374,434.5a.45.45,0,0,1-.262-.815,11.024,11.024,0,0,1,2.782-1.444.449.449,0,0,1,.3.848,10.152,10.152,0,0,0-2.555,1.326A.449.449,0,0,1,826.374,434.5Z" id="Tracé_2279"></path>
      </g>
      <g transform="translate(28.765 18.567)" id="Groupe_9756">
        <path fill="#fff" transform="translate(-830.408 -432.209)" d="M843.613,451.2H830.858a.45.45,0,0,1,0-.9h12.306v-7.6a10.173,10.173,0,0,0-6.837-9.608.45.45,0,0,1,.295-.851,11.074,11.074,0,0,1,7.441,10.459v8.054A.449.449,0,0,1,843.613,451.2Z" id="Tracé_2280"></path>
      </g>
      <g transform="translate(0 13.664)" id="Groupe_9757">
        <path fill="#fff" transform="translate(-798.422 -426.757)" d="M811.275,450.647h-12.4a.449.449,0,0,1-.45-.45V438.77a12.9,12.9,0,0,1,8.242-11.983.45.45,0,0,1,.321.84,12,12,0,0,0-7.664,11.143v10.978h11.953a.45.45,0,1,1,0,.9Z" id="Tracé_2281"></path>
      </g>
      <g transform="translate(16.81 13.668)" id="Groupe_9758">
        <path fill="#fff" transform="translate(-817.114 -426.761)" d="M823.512,432.476a.447.447,0,0,1-.376-.2,12.056,12.056,0,0,0-5.733-4.641.45.45,0,1,1,.322-.84,12.945,12.945,0,0,1,6.164,4.991.449.449,0,0,1-.377.694Z" id="Tracé_2282"></path>
      </g>
      <g transform="translate(4.821)" id="Groupe_9761">
        <g id="Groupe_9760">
          <g id="Groupe_9759">
            <path fill="#fff" transform="translate(-803.783 -411.563)" d="M811.789,427.572a8,8,0,1,1,8.006-8A8.014,8.014,0,0,1,811.789,427.572Zm0-15.11a7.105,7.105,0,1,0,7.106,7.105A7.114,7.114,0,0,0,811.789,412.462Z" id="Tracé_2283"></path>
          </g>
        </g>
      </g>
      <path fill="#fff" transform="translate(-799.811 -414.53)" d="M825.242,441.162l-8.572-.13a8.641,8.641,0,0,0-4.456,7.556v3.5h17.261v-3.5A8.672,8.672,0,0,0,825.242,441.162Z" id="Tracé_2284"></path>
      <g transform="translate(15.435 18.001)" id="Groupe_9764">
        <g id="Groupe_9763">
          <g id="Groupe_9762">
            <circle fill="#00ccad" transform="translate(0.449 0.45)" r="5.15" cy="5.15" cx="5.15" id="Ellipse_753"></circle>
            <path fill="#fff" transform="translate(-815.585 -431.58)" d="M821.183,442.779a5.6,5.6,0,1,1,5.6-5.6A5.605,5.605,0,0,1,821.183,442.779Zm0-10.3a4.7,4.7,0,1,0,4.7,4.7A4.705,4.705,0,0,0,821.183,432.479Z" id="Tracé_2285"></path>
          </g>
        </g>
      </g>
      <g transform="translate(21.033 3.301)" id="Groupe_9769">
        <g transform="translate(4.144 7.24)" id="Groupe_9767">
          <g id="Groupe_9766">
            <g id="Groupe_9765">
              <path fill="#fff" transform="translate(-826.418 -423.285)" d="M832.594,433.41a6.184,6.184,0,0,1-6.176-6.177v-3.5a.45.45,0,0,1,.45-.45h11.454a.449.449,0,0,1,.45.45v3.5A6.184,6.184,0,0,1,832.594,433.41Zm-5.277-9.226v3.049a5.278,5.278,0,0,0,10.555,0v-3.049Z" id="Tracé_2286"></path>
            </g>
          </g>
        </g>
        <g id="Groupe_9768">
          <path fill="#fff" transform="translate(-821.81 -415.234)" d="M841.956,431.426h-5.8a.45.45,0,1,1,0-.9h5.357l.042-4.976a9.422,9.422,0,0,0-18.843,0v3.122a.45.45,0,0,1-.9,0v-3.122a10.321,10.321,0,0,1,20.642,0l-.046,5.426A.45.45,0,0,1,841.956,431.426Z" id="Tracé_2287"></path>
        </g>
      </g>
    </g>
    <g transform="translate(836.713 440.675)" id="Groupe_9771">
      <path fill="#fff" transform="translate(-841 -443.935)" d="M841.45,452.188a.449.449,0,0,1-.45-.45v-7.354a.45.45,0,0,1,.9,0v7.354A.449.449,0,0,1,841.45,452.188Z" id="Tracé_2288"></path>
    </g>
    <g transform="translate(803.243 438.01)" id="Groupe_9772">
      <path fill="#fff" transform="translate(-803.783 -440.971)" d="M804.233,451.425a.45.45,0,0,1-.45-.45v-9.555a.45.45,0,1,1,.9,0v9.555A.449.449,0,0,1,804.233,451.425Z" id="Tracé_2289"></path>
    </g>
  </g>
</svg>