<svg viewBox="0 0 44.414 40.277" height="40.277" width="44.414" xmlns="http://www.w3.org/2000/svg" id="Groupe_9826">
  <g transform="translate(0 12.064)" id="Groupe_9707">
    <g id="Groupe_9706">
      <g transform="translate(23.338)" id="Groupe_9703">
        <g id="Groupe_9702">
          <path fill="#20315c" transform="translate(-610.428 -341.531)" d="M619.626,369.744h-8.52a.486.486,0,0,1-.485-.485V367.15c-.112-.569-.9-5.124,1.792-7.944a12.909,12.909,0,0,1,4.463-3.054,5.028,5.028,0,0,0,1.452-.829l3.366-3.365a2.466,2.466,0,0,1,3.207-.238l1.588-2.383a30.6,30.6,0,0,1,.25-4.546,3.614,3.614,0,0,1,1.483-2.747,3.847,3.847,0,0,1,2.932-.376.486.486,0,0,1,.349.468l-.049,8.689a.476.476,0,0,1-.031.169l-2.642,7a.518.518,0,0,1-.111.172l-7.878,7.877a1.823,1.823,0,0,0-.645,1.082l-.038,2.137A.486.486,0,0,1,619.626,369.744Zm-8.034-.971h7.558l.029-1.638a2.558,2.558,0,0,1,.929-1.775l7.8-7.8,2.575-6.825.046-8.2a2.658,2.658,0,0,0-1.781.324,2.722,2.722,0,0,0-1.046,2.053,29.049,29.049,0,0,0-.24,4.54.482.482,0,0,1-.081.294l-1.815,2.725a2.464,2.464,0,0,1-.392,2.969l-4.672,4.673a.485.485,0,0,1-.686-.686l4.672-4.673a1.491,1.491,0,1,0-2.109-2.109l-3.366,3.366a5.712,5.712,0,0,1-1.739,1.027,11.879,11.879,0,0,0-4.162,2.841c-2.463,2.58-1.542,7.078-1.533,7.124a.5.5,0,0,1,.011.1Z" id="Tracé_2241"></path>
        </g>
      </g>
      <g id="Groupe_9705">
        <g id="Groupe_9704">
          <path fill="#20315c" transform="translate(-586.386 -341.531)" d="M606.783,369.744h-8.521a.486.486,0,0,1-.485-.478l-.038-2.113a1.782,1.782,0,0,0-.644-1.107l-7.878-7.877a.505.505,0,0,1-.112-.172l-2.641-7a.453.453,0,0,1-.031-.169l-.048-8.689a.485.485,0,0,1,.349-.468,3.849,3.849,0,0,1,2.932.376,3.619,3.619,0,0,1,1.481,2.747,30.841,30.841,0,0,1,.252,4.546l1.587,2.383a2.468,2.468,0,0,1,3.207.238l3.365,3.365a5.062,5.062,0,0,0,1.452.829,12.9,12.9,0,0,1,4.464,3.054c2.691,2.821,1.9,7.376,1.792,7.944v2.109A.485.485,0,0,1,606.783,369.744Zm-8.045-.971h7.56V367.1a.5.5,0,0,1,.011-.1c.01-.045.922-4.552-1.534-7.124a11.88,11.88,0,0,0-4.162-2.841,5.713,5.713,0,0,1-1.739-1.027l-3.365-3.366a1.5,1.5,0,0,0-2.109,0,1.492,1.492,0,0,0,0,2.109l4.673,4.673a.485.485,0,0,1-.686.686l-4.673-4.673a2.464,2.464,0,0,1-.393-2.97l-1.814-2.724a.482.482,0,0,1-.081-.294,29.057,29.057,0,0,0-.24-4.54,2.72,2.72,0,0,0-1.046-2.053,2.657,2.657,0,0,0-1.78-.324l.045,8.2,2.574,6.825,7.8,7.8a2.542,2.542,0,0,1,.927,1.817Z" id="Tracé_2242"></path>
        </g>
      </g>
    </g>
  </g>
  <g transform="translate(8.974)" id="Groupe_9710">
    <g transform="translate(0.484 0.485)" id="Groupe_9708">
      <path fill="#00ccad" transform="translate(-596.13 -329.603)" d="M621.629,336.572a6.434,6.434,0,0,0-12.745-1.649,6.735,6.735,0,0,0-6.359-5.319,6.666,6.666,0,0,0-6.395,6.9,7.356,7.356,0,0,0,.829,3.429c2.812,5.975,11.88,11.674,11.88,11.674s9.1-5.648,11.944-11.61A7.369,7.369,0,0,0,621.629,336.572Z" id="Tracé_2243"></path>
    </g>
    <g id="Groupe_9709">
      <path fill="#00ccad" transform="translate(-595.631 -329.103)" d="M608.823,352.161l-.256-.162c-.376-.235-9.221-5.843-12.061-11.876a7.842,7.842,0,0,1-.875-3.636,7.159,7.159,0,0,1,6.864-7.383h.017a7.13,7.13,0,0,1,6.36,4.3,7.13,7.13,0,0,1,6.366-4.265h.022a7.155,7.155,0,0,1,6.839,7.418h0a7.892,7.892,0,0,1-.9,3.647c-2.865,6-11.742,11.562-12.119,11.795Zm-6.328-22.087a6.19,6.19,0,0,0-5.893,6.415,6.885,6.885,0,0,0,.774,3.2c2.467,5.24,9.964,10.346,11.451,11.321,1.49-.967,9.019-6.033,11.5-11.242a6.937,6.937,0,0,0,.8-3.215,6.187,6.187,0,0,0-5.871-6.444h-.02a6.244,6.244,0,0,0-5.9,4.909l-.478,2.02-.468-2.023a6.246,6.246,0,0,0-5.886-4.943Z" id="Tracé_2244"></path>
    </g>
  </g>
</svg>
