<svg viewBox="0 0 66 66" height="66" width="66" xmlns:xlink="http://www.w3.org/1999/xlink" xmlns="http://www.w3.org/2000/svg">
  <defs>
    <clipPath id="clip-Icon-Document-eye">
      <rect height="66" width="66"></rect>
    </clipPath>
  </defs>
  <g clip-path="url(#clip-Icon-Document-eye)" id="Icon-Document-eye">
    <rect fill="rgba(255,255,255,0)" height="66" width="66"></rect>
    <g transform="translate(-0.7 -0.6)" id="Groupe_9861">
      <path fill="#20315c" transform="translate(-19.94 -15.607)" d="M75.513,47.9H63.272a.972.972,0,0,0,0,1.943H75.513a1,1,0,0,0,.972-.972A.954.954,0,0,0,75.513,47.9Z" id="Tracé_2314"></path>
      <path fill="#20315c" transform="translate(-15.995 -11.591)" d="M71.567,36.5h-19.5a.972.972,0,0,0,0,1.943h19.56a1,1,0,0,0,.972-.972A1.011,1.011,0,0,0,71.567,36.5Z" id="Tracé_2315"></path>
      <path fill="#20315c" transform="translate(-15.466 -7.61)" d="M71.039,25.2H50.572a.972.972,0,0,0,0,1.943H71.039a1,1,0,0,0,.972-.972A.954.954,0,0,0,71.039,25.2Z" id="Tracé_2316"></path>
      <path fill="#20315c" transform="translate(-6.412)" d="M67.814,12.538h0c0-.065-.065-.13-.065-.259v-.065c-.065-.065-.065-.13-.13-.194l-8.29-8.161c-.065-.065-.13-.13-.194-.13H59.07a.936.936,0,0,0-.453-.13H24.872a1,1,0,0,0-.972.972,1,1,0,0,0,.972.972H57.645V12.8a1,1,0,0,0,.972.972h7.254V61.828H25.843V36.892a.972.972,0,1,0-1.943,0V62.8a1,1,0,0,0,.972.972H66.907a1,1,0,0,0,.972-.972V12.732A.238.238,0,0,1,67.814,12.538ZM59.588,6.9l2.461,2.461,2.461,2.461H59.588Z" id="Tracé_2317"></path>
      <path fill="#20315c" transform="translate(0 -2.501)" d="M25.973,32.4l3.044,3.044L27.139,37.32a.939.939,0,0,0,0,1.36L42.295,53.836a1.109,1.109,0,0,0,1.425,0L45.6,51.958l2.591,2.591a4.6,4.6,0,0,0,3.821,7.125,4.354,4.354,0,0,0,3.238-1.36,4.611,4.611,0,0,0,1.36-3.238,4.354,4.354,0,0,0-1.36-3.238,4.611,4.611,0,0,0-3.238-1.36,4.561,4.561,0,0,0-2.461.712L46.958,50.6l1.878-1.878a.974.974,0,0,0,.259-.712,1.358,1.358,0,0,0-.259-.712L33.68,32.2a.938.938,0,0,0-1.36,0l-1.878,1.878-3.109-3.109a11.635,11.635,0,1,0-1.36,1.425ZM53.824,55.132a2.656,2.656,0,0,1-3.757,3.757,2.658,2.658,0,0,1,0-3.757,2.594,2.594,0,0,1,1.878-.777A2.492,2.492,0,0,1,53.824,55.132ZM32.968,34.276l13.8,13.8-3.757,3.757-13.8-13.861ZM7.708,23.071A10.363,10.363,0,1,1,18.071,33.434,10.394,10.394,0,0,1,7.708,23.071Z" id="Tracé_2318"></path>
      <path fill="#00ccad" transform="translate(-2.202 -6.165)" d="M28.369,27.124a.961.961,0,0,0,0-.842A9.111,9.111,0,0,0,20.208,21.1a9,9,0,0,0-8.161,5.182.961.961,0,0,0,0,.842,9.018,9.018,0,0,0,16.322,0Zm-14.314-.389a7.033,7.033,0,0,1,12.306,0,7.033,7.033,0,0,1-12.306,0Z" id="Tracé_2319"></path>
      <path fill="#00ccad" transform="translate(-5.179 -7.68)" d="M26.1,28.25a2.833,2.833,0,0,0-2.85-2.85,2.85,2.85,0,1,0,2.85,2.85Zm-3.821,0a.907.907,0,1,1,.907.907A.885.885,0,0,1,22.278,28.25Z" id="Tracé_2320"></path>
    </g>
  </g>
</svg>
