<svg viewBox="0 0 46.128 49.784" height="49.784" width="46.128" xmlns="http://www.w3.org/2000/svg" id="Groupe_9821">
  <g transform="translate(0 18.131)" id="Groupe_9726">
    <g id="Groupe_9725">
      <path fill="#20315c" transform="translate(-589.494 -175.44)" d="M612.559,205.5a23.068,23.068,0,0,1-22.108-29.643.584.584,0,1,1,1.119.332,21.9,21.9,0,1,0,41.978,0,.584.584,0,1,1,1.119-.333A23.068,23.068,0,0,1,612.559,205.5Z" id="Tracé_2254"></path>
    </g>
  </g>
  <g transform="translate(2.204)" id="Groupe_9729">
    <g transform="translate(15.889)" id="Groupe_9727">
      <path fill="#fff" transform="translate(-604.919 -159.817)" d="M614.278,164.788a4.388,4.388,0,1,1-4.388-4.388A4.387,4.387,0,0,1,614.278,164.788Z" id="Tracé_2255"></path>
      <path fill="#20315c" transform="translate(-605.002 -159.9)" d="M609.973,169.842a4.971,4.971,0,1,1,4.97-4.97A4.976,4.976,0,0,1,609.973,169.842Zm0-8.775a3.8,3.8,0,1,0,3.8,3.8A3.809,3.809,0,0,0,609.973,161.067Z" id="Tracé_2256"></path>
    </g>
    <g transform="translate(0 10.376)" id="Groupe_9728">
      <path fill="#fff" transform="translate(-591.3 -168.71)" d="M630.244,169.293H594.076a2.194,2.194,0,0,0,0,4.388h12.767v6.389a43.785,43.785,0,0,1-1.908,12.784l-3.5,11.465a2.484,2.484,0,0,0,1.316,3.029,2.39,2.39,0,0,0,3.214-1.5l5.123-16.778a1.121,1.121,0,0,1,2.145,0l5.123,16.778a2.389,2.389,0,0,0,3.214,1.5,2.482,2.482,0,0,0,1.315-3.029l-3.5-11.464a43.793,43.793,0,0,1-1.908-12.785v-6.389h12.767a2.194,2.194,0,0,0,0-4.388Z" id="Tracé_2257"></path>
      <path fill="#20315c" transform="translate(-591.383 -168.793)" d="M620.722,208.2a2.966,2.966,0,0,1-2.842-2.1l-5.123-16.78a.518.518,0,0,0-.512-.38h0a.519.519,0,0,0-.514.38l-5.122,16.78a2.973,2.973,0,0,1-4,1.871,3.074,3.074,0,0,1-1.65-3.738l3.5-11.465a43.135,43.135,0,0,0,1.883-12.613v-5.806H594.16a2.777,2.777,0,0,1,0-5.555h36.168a2.777,2.777,0,1,1,0,5.555H618.143v5.806a43.134,43.134,0,0,0,1.884,12.614l3.5,11.464a3.079,3.079,0,0,1-1.648,3.738A3.012,3.012,0,0,1,620.722,208.2Zm-8.478-20.429h0a1.672,1.672,0,0,1,1.629,1.208L619,205.758a1.808,1.808,0,0,0,2.432,1.135,1.9,1.9,0,0,0,.981-2.321l-3.5-11.464a44.342,44.342,0,0,1-1.934-12.955v-6.389a.583.583,0,0,1,.583-.583h12.768a1.611,1.611,0,1,0,0-3.221H594.16a1.611,1.611,0,0,0,0,3.221h12.767a.583.583,0,0,1,.583.583v6.389a44.334,44.334,0,0,1-1.933,12.954l-3.5,11.465a1.9,1.9,0,0,0,.982,2.321,1.778,1.778,0,0,0,1.471-.029,1.8,1.8,0,0,0,.96-1.106l5.122-16.78A1.677,1.677,0,0,1,612.244,187.772Z" id="Tracé_2258"></path>
    </g>
  </g>
  <g transform="translate(6.056 18.127)" id="Groupe_9732">
    <g transform="translate(0 0.004)" id="Groupe_9730">
      <path fill="#20315c" transform="translate(-594.685 -175.44)" d="M598.959,193.377a.585.585,0,0,1-.453-.215,17.015,17.015,0,0,1-3.821-10.727,16.841,16.841,0,0,1,1.35-6.64.583.583,0,1,1,1.073.456,15.816,15.816,0,0,0,2.3,16.173.583.583,0,0,1-.451.952Z" id="Tracé_2259"></path>
    </g>
    <g transform="translate(28.02)" id="Groupe_9731">
      <path fill="#20315c" transform="translate(-618.701 -175.437)" d="M619.284,194.636a.583.583,0,0,1-.412-1,15.812,15.812,0,0,0,3.4-17.391.584.584,0,0,1,1.073-.459,16.982,16.982,0,0,1-3.648,18.676A.586.586,0,0,1,619.284,194.636Z" id="Tracé_2260"></path>
    </g>
  </g>
  <g transform="translate(12.5 33.77)" id="Groupe_9733">
    <path fill="#00ccad" transform="translate(-600.125 -188.762)" d="M608.377,193.18a3.834,3.834,0,1,1-3.835-3.835A3.834,3.834,0,0,1,608.377,193.18Z" id="Tracé_2261"></path>
    <path fill="#00ccad" transform="translate(-600.208 -188.845)" d="M604.625,197.68a4.418,4.418,0,1,1,4.418-4.418A4.423,4.423,0,0,1,604.625,197.68Zm0-7.669a3.251,3.251,0,1,0,3.252,3.25A3.254,3.254,0,0,0,604.625,190.012Z" id="Tracé_2262"></path>
  </g>
  <g transform="translate(20.851 15.573)" id="Groupe_9734">
    <path fill="#00ccad" transform="translate(-607.283 -173.165)" d="M615.535,177.582a3.834,3.834,0,1,1-3.834-3.834A3.834,3.834,0,0,1,615.535,177.582Z" id="Tracé_2263"></path>
    <path fill="#00ccad" transform="translate(-607.366 -173.248)" d="M611.783,182.083a4.418,4.418,0,1,1,4.418-4.417A4.422,4.422,0,0,1,611.783,182.083Zm0-7.669a3.251,3.251,0,1,0,3.252,3.252A3.255,3.255,0,0,0,611.783,174.415Z" id="Tracé_2264"></path>
  </g>
  <g transform="translate(30.242 7.904)" id="Groupe_9735">
    <path fill="#00ccad" transform="translate(-615.332 -166.592)" d="M623.584,171.009a3.834,3.834,0,1,1-3.835-3.834A3.836,3.836,0,0,1,623.584,171.009Z" id="Tracé_2265"></path>
    <path fill="#00ccad" transform="translate(-615.415 -166.675)" d="M619.832,175.51a4.418,4.418,0,1,1,4.418-4.418A4.423,4.423,0,0,1,619.832,175.51Zm0-7.669a3.251,3.251,0,1,0,3.252,3.25A3.254,3.254,0,0,0,619.832,167.842Z" id="Tracé_2266"></path>
  </g>
</svg>